# xmcd
# 
# Track frame offsets:
#	192
#	11335
#	20400
#	31450
#	43337
#	53377
#	60537
#	70037
#	78805
#	93232
#	107177
#	119157
#	129697
#	140490
#	151907
#	162325
#	172780
#	183585
#	196005
#	206012
#	217440
#	228210
#	239612
#	254090
#	263925
#
# Disc length: 3666 seconds
#
# Revision: 1
# Processed by: cddbd v1.4PL0 Copyright (c) Steve Scherf et al.
# Submitted via: Audio-CD-Archiv 2.10.446
#
DISCID=640e5019
DTITLE=Jimmy Witherspoon - Feelin' The Spirit
DYEAR=1900
DGENRE=blues
TTITLE0=Every Time I Feel the Spirit
TTITLE1=Deep River
TTITLE2=I Couldn't Hear Nobody Pray
TTITLE3=Sometimes I Feel Like a Motherless Child
TTITLE4=Nobody Knows the Trouble I've Seen
TTITLE5=I Want to Be Ready
TTITLE6=Steal Away to Jesus
TTITLE7=Oh Mary, Don't You Weep
TTITLE8=Go Down Moses
TTITLE9=Time Has Come
TTITLE10=Amazing Grace
TTITLE11=Beautful Isle of Somewhere
TTITLE12=Down by the Riverside
TTITLE13=(Give Me) That Old Time Religion
TTITLE14=Go Tell It on the Mountain
TTITLE15=He's Got the Whole World in His Hands
TTITLE16=His Eye Is on the Sparrow
TTITLE17=I Am a Poor Wayfaring Stranger
TTITLE18=I Love to Tall the Story
TTITLE19=Can the Circle Be Unbroken
TTITLE20=Jesus Loves Me, This I Know
TTITLE21=Just a Closer Walk With Thee
TTITLE22=Nearer My God to Thee
TTITLE23=Onward Christian Soldiers
TTITLE24=Rock of Ages
EXTD=
EXTT0=
EXTT1=
EXTT2=
EXTT3=
EXTT4=
EXTT5=
EXTT6=
EXTT7=
EXTT8=
EXTT9=
EXTT10=
EXTT11=
EXTT12=
EXTT13=
EXTT14=
EXTT15=
EXTT16=
EXTT17=
EXTT18=
EXTT19=
EXTT20=
EXTT21=
EXTT22=
EXTT23=
EXTT24=
PLAYORDER=
